<svg version="1.0" xmlns="http://www.w3.org/2000/svg"
 width="512.000000pt" height="512.000000pt" viewBox="0 0 512.000000 512.000000"
 preserveAspectRatio="xMidYMid meet">
<g transform="translate(0.000000,512.000000) scale(0.100000,-0.100000)"
fill="#fff" stroke="none">
<path d="M2490 5094 c-156 -17 -252 -57 -327 -137 -95 -100 -131 -208 -140
-422 -8 -181 9 -272 73 -404 35 -70 62 -109 110 -158 l64 -64 -37 -15 c-239
-96 -414 -261 -500 -474 -62 -154 -71 -354 -20 -460 73 -152 201 -228 467
-277 76 -14 152 -18 380 -18 228 0 304 4 380 18 266 49 394 125 467 277 21 45
27 73 31 155 14 339 -196 637 -551 779 l-37 15 64 64 c81 82 148 212 172 337
33 167 6 429 -57 553 -54 104 -175 192 -299 216 -66 12 -192 20 -240 15z"/>
<path d="M1447 3927 c-282 -153 -610 -484 -746 -754 -35 -70 -39 -112 -13
-136 24 -22 130 -67 157 -67 42 0 56 12 87 74 127 251 414 538 667 665 60 31
71 44 71 87 0 29 -55 155 -73 166 -27 17 -76 6 -150 -35z"/>
<path d="M3523 3962 c-18 -11 -73 -137 -73 -166 0 -43 11 -56 71 -87 253 -127
540 -414 667 -665 43 -85 69 -92 168 -48 75 33 94 50 94 86 0 55 -84 198 -211
359 -222 280 -629 576 -716 521z"/>
<path d="M730 2700 c-112 -20 -209 -74 -272 -151 -47 -58 -63 -92 -90 -186
-19 -67 -22 -102 -23 -258 0 -162 2 -187 23 -250 36 -108 81 -183 155 -262
l68 -71 -38 -12 c-125 -40 -292 -160 -386 -275 -63 -78 -122 -199 -148 -304
-30 -121 -24 -282 14 -361 87 -183 295 -271 682 -288 289 -13 562 8 710 55
148 46 262 140 307 251 33 83 33 264 -1 372 -53 172 -153 315 -294 421 -78 59
-190 119 -250 134 l-27 7 44 39 c85 75 154 190 192 319 15 52 19 96 18 225 0
176 -19 277 -70 377 -54 107 -162 184 -299 213 -74 15 -239 18 -315 5z"/>
<path d="M4071 2695 c-135 -30 -242 -108 -295 -213 -51 -100 -70 -201 -70
-377 -1 -129 3 -173 18 -225 38 -129 107 -244 192 -319 l44 -39 -27 -7 c-60
-15 -172 -75 -250 -134 -141 -106 -241 -249 -294 -421 -34 -108 -34 -289 -1
-372 45 -111 159 -205 307 -251 148 -47 421 -68 710 -55 387 17 595 105 682
288 38 79 44 240 14 361 -26 105 -85 226 -148 304 -94 115 -261 235 -386 275
l-38 12 68 71 c74 79 119 154 155 262 21 63 23 88 23 250 -1 190 -16 279 -64
373 -47 93 -132 162 -247 203 -79 28 -298 36 -393 14z"/>
<path d="M1988 360 c-18 -11 -78 -148 -78 -179 0 -34 34 -58 118 -85 298 -94
766 -94 1064 0 84 27 118 51 118 85 0 11 -14 54 -31 95 -42 100 -53 105 -166
71 -134 -39 -177 -47 -320 -56 -226 -14 -462 10 -612 63 -50 18 -69 19 -93 6z"/>
</g>
</svg>
