<svg version="1.0" xmlns="http://www.w3.org/2000/svg"
 width="200.000000pt" height="200.000000pt" viewBox="0 0 200.000000 200.000000"
 preserveAspectRatio="xMidYMid meet">
<g transform="translate(0.000000,200.000000) scale(0.100000,-0.100000)"
fill="#fff" stroke="none">
<path d="M1274 1521 c-83 -38 -146 -150 -129 -233 23 -116 122 -242 283 -361
34 -25 71 -49 82 -52 27 -8 65 14 164 95 154 127 226 236 226 343 0 132 -89
227 -215 227 -53 0 -121 -26 -144 -54 -13 -16 -15 -15 -35 3 -54 51 -158 65
-232 32z"/>
<path d="M530 1100 c-68 -25 -430 -231 -430 -245 0 -11 205 -372 221 -389 4
-5 47 14 100 43 50 29 106 55 123 58 19 3 102 -14 221 -46 105 -28 210 -51
235 -51 25 0 167 29 315 65 149 36 280 67 292 70 13 3 30 16 39 30 13 20 14
30 4 60 -20 60 -40 65 -287 65 -237 0 -241 1 -451 66 -111 35 -137 53 -113 77
8 8 39 2 124 -26 131 -43 145 -44 181 -16 32 25 37 88 8 117 -17 17 -232 92
-367 128 -70 19 -151 17 -215 -6z"/>
</g>
</svg>
