<svg version="1.0" xmlns="http://www.w3.org/2000/svg"
 width="200.000000pt" height="200.000000pt" viewBox="0 0 200.000000 200.000000"
 preserveAspectRatio="xMidYMid meet">
<g transform="translate(0.000000,200.000000) scale(0.100000,-0.100000)"
fill="#fff" stroke="none">
<path d="M92 1980 c-42 -26 -72 -76 -72 -122 0 -65 176 -550 261 -721 66 -130
90 -158 239 -277 228 -182 264 -235 263 -380 -1 -69 -26 -262 -58 -447 l-6
-33 631 0 c529 0 630 2 630 14 0 31 -64 266 -91 334 -93 234 -239 425 -388
505 l-52 29 -47 -22 c-120 -57 -260 -37 -412 58 -95 60 -333 235 -372 274 -54
54 -89 130 -198 433 -112 312 -120 329 -163 355 -43 27 -121 26 -165 0z"/>
<path d="M1150 1716 c-117 -25 -217 -105 -268 -214 -24 -51 -27 -69 -27 -167
0 -101 2 -115 28 -168 37 -74 110 -147 184 -184 53 -26 67 -28 168 -28 101 0
115 2 170 29 191 94 271 324 182 520 -51 110 -159 193 -281 215 -71 13 -85 13
-156 -3z"/>
</g>
</svg>
