<svg width="18" height="20" viewBox="0 0 18 20" fill="none" xmlns="http://www.w3.org/2000/svg">
<symbol id="sprite-faqs" viewBox="0 0 20 20"><title>faqs</title>
<rect width="18" height="14" rx="1" fill="white"/>
<path d="M7.62 8.156V7.724C7.62 7.332 7.704 7 7.872 6.728C8.04 6.448 8.328 6.16 8.736 5.864C9.096 5.608 9.352 5.388 9.504 5.204C9.664 5.012 9.744 4.788 9.744 4.532C9.744 4.284 9.648 4.092 9.456 3.956C9.272 3.82 9.012 3.752 8.676 3.752C8.34 3.752 8.008 3.804 7.68 3.908C7.352 4.012 7.016 4.152 6.672 4.328L6.036 3.044C6.428 2.828 6.852 2.652 7.308 2.516C7.764 2.38 8.264 2.312 8.808 2.312C9.64 2.312 10.284 2.512 10.74 2.912C11.204 3.312 11.436 3.82 11.436 4.436C11.436 4.764 11.384 5.048 11.28 5.288C11.176 5.528 11.02 5.752 10.812 5.96C10.604 6.168 10.344 6.384 10.032 6.608C9.792 6.784 9.608 6.932 9.48 7.052C9.36 7.164 9.276 7.28 9.228 7.4C9.188 7.512 9.168 7.648 9.168 7.808V8.156H7.62ZM7.428 10.16C7.428 9.792 7.528 9.536 7.728 9.392C7.928 9.24 8.172 9.164 8.46 9.164C8.74 9.164 8.98 9.24 9.18 9.392C9.38 9.536 9.48 9.792 9.48 10.16C9.48 10.512 9.38 10.768 9.18 10.928C8.98 11.08 8.74 11.156 8.46 11.156C8.172 11.156 7.928 11.08 7.728 10.928C7.528 10.768 7.428 10.512 7.428 10.16Z" fill="#1A5A96"/>
<path d="M14.0742 17.9955L11.469 13.762C11.2639 13.4289 11.5036 13 11.8948 13H14.5C14.7761 13 15 13.2239 15 13.5V17.7335C15 18.2376 14.3384 18.4249 14.0742 17.9955Z" fill="white" stroke="white"/>
</symbol>
</svg>