<svg xmlns="http://www.w3.org/2000/svg"><symbol id="sprite-challenge" viewBox="0 0 48 48"><title>challenge</title><path d="M19 22h10v20H19zM6 6h10v36H6zm26 6h10v30H32z" fill="#fff"/></symbol><symbol id="sprite-check" viewBox="0 0 20 20"><title>check</title><g stroke="#1a5a96" stroke-width="2.3" fill="#fff"><circle cx="10" cy="10" r="8.5"/><path d="M5.2 10l3.3 3.4 6.3-6.2"/></g></symbol><symbol id="sprite-connect" viewBox="0 0 512 512"><title>connect</title><path d="M2490 5094c-156-17-252-57-327-137-95-100-131-208-140-422-8-181 9-272 73-404 35-70 62-109 110-158l64-64-37-15c-239-96-414-261-500-474-62-154-71-354-20-460 73-152 201-228 467-277 76-14 152-18 380-18s304 4 380 18c266 49 394 125 467 277 21 45 27 73 31 155 14 339-196 637-551 779l-37 15 64 64c81 82 148 212 172 337 33 167 6 429-57 553-54 104-175 192-299 216-66 12-192 20-240 15zM1447 3927c-282-153-610-484-746-754-35-70-39-112-13-136 24-22 130-67 157-67 42 0 56 12 87 74 127 251 414 538 667 665 60 31 71 44 71 87 0 29-55 155-73 166-27 17-76 6-150-35zm2076 35c-18-11-73-137-73-166 0-43 11-56 71-87 253-127 540-414 667-665 43-85 69-92 168-48 75 33 94 50 94 86 0 55-84 198-211 359-222 280-629 576-716 521zM730 2700c-112-20-209-74-272-151-47-58-63-92-90-186-19-67-22-102-23-258 0-162 2-187 23-250 36-108 81-183 155-262l68-71-38-12c-125-40-292-160-386-275-63-78-122-199-148-304-30-121-24-282 14-361 87-183 295-271 682-288 289-13 562 8 710 55 148 46 262 140 307 251 33 83 33 264-1 372-53 172-153 315-294 421-78 59-190 119-250 134l-27 7 44 39c85 75 154 190 192 319 15 52 19 96 18 225 0 176-19 277-70 377-54 107-162 184-299 213-74 15-239 18-315 5zm3341-5c-135-30-242-108-295-213-51-100-70-201-70-377-1-129 3-173 18-225 38-129 107-244 192-319l44-39-27-7c-60-15-172-75-250-134-141-106-241-249-294-421-34-108-34-289-1-372 45-111 159-205 307-251 148-47 421-68 710-55 387 17 595 105 682 288 38 79 44 240 14 361-26 105-85 226-148 304-94 115-261 235-386 275l-38 12 68 71c74 79 119 154 155 262 21 63 23 88 23 250-1 190-16 279-64 373-47 93-132 162-247 203-79 28-298 36-393 14zM1988 360c-18-11-78-148-78-179 0-34 34-58 118-85 298-94 766-94 1064 0 84 27 118 51 118 85 0 11-14 54-31 95-42 100-53 105-166 71-134-39-177-47-320-56-226-14-462 10-612 63-50 18-69 19-93 6z" transform="matrix(.1 0 0 -.1 0 512)" fill="#fff"/></symbol><symbol fill="none" id="sprite-external-link" viewBox="0 0 24 24"><title>external-link</title><path d="M18 13v6a2 2 0 01-2 2H5a2 2 0 01-2-2V8a2 2 0 012-2h6m4-3h6v6m-11 5L21 3" stroke="#E0E0E0" stroke-width="2" stroke-linecap="round" stroke-linejoin="round"/></symbol><symbol id="sprite-give" viewBox="0 0 200 200"><title>give</title><path d="M1274 1521c-83-38-146-150-129-233 23-116 122-242 283-361 34-25 71-49 82-52 27-8 65 14 164 95 154 127 226 236 226 343 0 132-89 227-215 227-53 0-121-26-144-54-13-16-15-15-35 3-54 51-158 65-232 32zm-744-421c-68-25-430-231-430-245 0-11 205-372 221-389 4-5 47 14 100 43 50 29 106 55 123 58 19 3 102-14 221-46 105-28 210-51 235-51s167 29 315 65c149 36 280 67 292 70 13 3 30 16 39 30 13 20 14 30 4 60-20 60-40 65-287 65-237 0-241 1-451 66-111 35-137 53-113 77 8 8 39 2 124-26 131-43 145-44 181-16 32 25 37 88 8 117-17 17-232 92-367 128-70 19-151 17-215-6z" transform="matrix(.1 0 0 -.1 0 200)" fill="#fff"/></symbol><symbol fill="none" id="sprite-home" viewBox="0 0 21 21"><title>home</title><path d="M2.625 7.875L10.5 1.75l7.875 6.125V17.5a1.75 1.75 0 01-1.75 1.75H4.375a1.75 1.75 0 01-1.75-1.75V7.875z" stroke="#fff" stroke-width="1.5" stroke-linecap="round" stroke-linejoin="round"/><path d="M7.875 19.25V10.5h5.25v8.75" stroke="#fff" stroke-width="1.5" stroke-linecap="round" stroke-linejoin="round"/></symbol><symbol id="sprite-volunteer" viewBox="0 0 200 200"><title>volunteer</title><g fill="#fff"><path d="M92 1980c-42-26-72-76-72-122 0-65 176-550 261-721 66-130 90-158 239-277 228-182 264-235 263-380-1-69-26-262-58-447l-6-33h631c529 0 630 2 630 14 0 31-64 266-91 334-93 234-239 425-388 505l-52 29-47-22c-120-57-260-37-412 58-95 60-333 235-372 274-54 54-89 130-198 433-112 312-120 329-163 355-43 27-121 26-165 0z" transform="matrix(.1 0 0 -.1 0 200)"/><path d="M1150 1716c-117-25-217-105-268-214-24-51-27-69-27-167 0-101 2-115 28-168 37-74 110-147 184-184 53-26 67-28 168-28s115 2 170 29c191 94 271 324 182 520-51 110-159 193-281 215-71 13-85 13-156-3z" transform="matrix(.1 0 0 -.1 0 200)"/></g></symbol></svg>